<svg width="32" height="32" viewBox="0 0 32 32" fill="none" xmlns="http://www.w3.org/2000/svg">
  <rect width="32" height="32" rx="8" fill="#1A7B7D"/>
  <path d="M8 16C8 11.5817 11.5817 8 16 8C20.4183 8 24 11.5817 24 16C24 20.4183 20.4183 24 16 24C11.5817 24 8 20.4183 8 16Z" fill="white" fill-opacity="0.1"/>
  <path d="M12 16C12 13.7909 13.7909 12 16 12C18.2091 12 20 13.7909 20 16C20 18.2091 18.2091 20 16 20C13.7909 20 12 18.2091 12 16Z" fill="white"/>
  <circle cx="16" cy="14" r="1" fill="#1A7B7D"/>
  <path d="M14.5 17.5C14.5 16.9477 14.9477 16.5 15.5 16.5H16.5C17.0523 16.5 17.5 16.9477 17.5 17.5V18.5C17.5 19.0523 17.0523 19.5 16.5 19.5H15.5C14.9477 19.5 14.5 19.0523 14.5 18.5V17.5Z" fill="#1A7B7D"/>
</svg>